:FULLY-SPECIFIED
:FORCE-ALL-JOINTS-BE-3DOF
:DEGREES
130
root 9.08387 15.9278 -19.0687 6.13513 7.87756 6.06461
lfemur 20.4303 1.28251 -26.4725
ltibia 3.65764e-14 0 0
lfoot -13.315 -2.02063 0
ltoes -7.74852 0 0
rfemur -42.3569 8.33937 5.92251
rtibia 27.8973 0 0
rfoot -20.4401 -11.3536 0
rtoes -21.113 0 0
lowerback -8.35387 -4.12501 -7.11618
upperback -1.19945 -4.92154 1.93354
thorax 4.19888 -2.57249 5.41013
lowerneck -19.8886 -5.51751 -13.2389
upperneck 20.7933 -6.40715 11.1793
head 10.7965 -2.69729 5.28806
lclavicle 2.4254e-14 -1.31198e-14 0
lhumerus -31.734 -23.693 98.1326
lradius 35.8269 0 0
lwrist 6.77241 0 0
lhand -12.1916 -24.1389 0
lfingers 7.12502 0 0
lthumb 13.872 5.37351 0
rclavicle 2.4254e-14 -1.31198e-14 0
rhumerus -47.5885 5.86038 -82.5969
rradius 32.2453 0 0
rwrist -19.0233 0 0
rhand -28.319 -28.0506 0
rfingers 7.12502 0 0
rthumb -1.69389 -58.0108 0
131
root 9.05773 15.913 -18.9027 6.22102 8.13359 6.08291
lfemur 20.9306 1.31642 -26.1454
ltibia 2.65046e-14 0 0
lfoot -12.9156 -2.33725 0
ltoes -7.72683 0 0
rfemur -42.2513 7.75792 6.32661
rtibia 28.2911 0 0
rfoot -19.2595 -10.9469 0
rtoes -21.7397 0 0
lowerback -8.31698 -4.1474 -7.11135
upperback -1.19731 -4.95333 1.90802
thorax 4.1826 -2.58745 5.37806
lowerneck -19.9525 -5.56997 -13.2475
upperneck 20.6829 -6.46964 11.2119
head 10.7789 -2.72004 5.28771
lclavicle 3.34181e-14 -1.40475e-14 0
lhumerus -32.1135 -23.2441 98.3621
lradius 34.8203 0 0
lwrist 5.87371 0 0
lhand -12.658 -24.0919 0
lfingers 7.12502 0 0
lthumb 13.4226 5.45124 0
rclavicle 3.34181e-14 -1.40475e-14 0
rhumerus -47.6917 5.61944 -82.5152
rradius 31.9783 0 0
rwrist -18.9189 0 0
rhand -27.5118 -30.4147 0
rfingers 7.12502 0 0
rthumb -0.914281 -60.3811 0
132
root 9.0316 15.8981 -18.7366 6.30691 8.38962 6.10121
lfemur 21.431 1.35032 -25.8183
ltibia 1.64329e-14 0 0
lfoot -12.5162 -2.65386 0
ltoes -7.70514 0 0
rfemur -42.1456 7.17647 6.73071
rtibia 28.6849 0 0
rfoot -18.0789 -10.5402 0
rtoes -22.3663 0 0
lowerback -8.28009 -4.16978 -7.10652
upperback -1.19516 -4.98513 1.88251
thorax 4.16633 -2.6024 5.34599
lowerneck -20.0164 -5.62242 -13.2561
upperneck 20.5726 -6.53212 11.2444
head 10.7613 -2.74278 5.28736
lclavicle 4.25821e-14 -1.49751e-14 0
lhumerus -32.4931 -22.7953 98.5915
lradius 33.8136 0 0
lwrist 4.97501 0 0
lhand -13.1243 -24.045 0
lfingers 7.12502 0 0
lthumb 12.9731 5.52898 0
rclavicle 4.25821e-14 -1.49751e-14 0
rhumerus -47.795 5.37851 -82.4335
rradius 31.7114 0 0
rwrist -18.8145 0 0
rhand -26.7045 -32.7787 0
rfingers 7.12502 0 0
rthumb -0.134677 -62.7513 0
133
root 9.00546 15.8832 -18.5706 6.3928 8.64565 6.11952
lfemur 21.9314 1.38423 -25.4912
ltibia 6.36111e-15 0 0
lfoot -12.1168 -2.97048 0
ltoes -7.68344 0 0
rfemur -42.04 6.59503 7.13481
rtibia 29.0787 0 0
rfoot -16.8983 -10.1335 0
rtoes -22.993 0 0
lowerback -8.2432 -4.19217 -7.10169
upperback -1.19302 -5.01692 1.857
thorax 4.15006 -2.61735 5.31392
lowerneck -20.0803 -5.67487 -13.2646
upperneck 20.4623 -6.5946 11.277
head 10.7437 -2.76552 5.28701
lclavicle 5.17461e-14 -1.59028e-14 0
lhumerus -32.8727 -22.3464 98.821
lradius 32.8069 0 0
lwrist 4.07631 0 0
lhand -13.5907 -23.998 0
lfingers 7.12502 0 0
lthumb 12.5237 5.60671 0
rclavicle 5.17461e-14 -1.59028e-14 0
rhumerus -47.8982 5.13757 -82.3518
rradius 31.4444 0 0
rwrist -18.7101 0 0
rhand -25.8973 -35.1427 0
rfingers 7.12502 0 0
rthumb 0.644928 -65.1215 0
134
root 8.97909 15.8804 -18.3978 6.41867 8.69174 5.92819
lfemur 22.4082 1.62577 -24.9286
ltibia 9.54166e-15 0 0
lfoot -11.1285 -3.0759 0
ltoes -8.67097 0 0
rfemur -42.1525 5.99034 7.86619
rtibia 30.0187 0 0
rfoot -15.1552 -9.77169 0
rtoes -22.8424 0 0
lowerback -8.16629 -4.11253 -6.82846
upperback -1.17571 -4.93933 1.85782
thorax 4.09242 -2.57348 5.17615
lowerneck -20.0932 -5.72898 -13.3291
upperneck 20.2846 -6.67636 11.4449
head 10.7034 -2.78773 5.34232
lclavicle 5.04809e-14 -1.20596e-14 0
lhumerus -33.0274 -21.1574 98.5617
lradius 31.7135 0 0
lwrist 3.48757 0 0
lhand -12.3632 -23.0948 0
lfingers 7.12502 0 0
lthumb 13.7057 6.41424 0
rclavicle 5.04809e-14 -1.20596e-14 0
rhumerus -48.0435 5.07751 -82.4388
rradius 31.2809 0 0
rwrist -18.5881 0 0
rhand -26.0235 -34.3718 0
rfingers 7.12502 0 0
rthumb 0.52307 -64.3508 0
135
root 8.95272 15.8776 -18.2249 6.44454 8.73783 5.73686
lfemur 22.885 1.86732 -24.366
ltibia 1.27222e-14 0 0
lfoot -10.1402 -3.18132 0
ltoes -9.65849 0 0
rfemur -42.2651 5.38565 8.59757
rtibia 30.9587 0 0
rfoot -13.4121 -9.40988 0
rtoes -22.6918 0 0
lowerback -8.08939 -4.0329 -6.55523
upperback -1.1584 -4.86174 1.85865
thorax 4.03478 -2.5296 5.03838
lowerneck -20.1062 -5.7831 -13.3936
upperneck 20.1068 -6.75811 11.6128
head 10.6631 -2.80994 5.39762
lclavicle 4.92157e-14 -8.21645e-15 0
lhumerus -33.182 -19.9684 98.3025
lradius 30.6201 0 0
lwrist 2.89882 0 0
lhand -11.1357 -22.1915 0
lfingers 7.12502 0 0
lthumb 14.8876 7.22177 0
rclavicle 4.92157e-14 -8.21645e-15 0
rhumerus -48.1889 5.01745 -82.5257
rradius 31.1173 0 0
rwrist -18.4661 0 0
rhand -26.1496 -33.6009 0
rfingers 7.12502 0 0
rthumb 0.401212 -63.58 0
136
root 8.92636 15.8749 -18.0521 6.47042 8.78392 5.54552
lfemur 23.3619 2.10886 -23.8034
ltibia 1.59028e-14 0 0
lfoot -9.15188 -3.28674 0
ltoes -10.646 0 0
rfemur -42.3776 4.78097 9.32896
rtibia 31.8987 0 0
rfoot -11.6689 -9.04807 0
rtoes -22.5412 0 0
lowerback -8.01248 -3.95326 -6.282
upperback -1.14109 -4.78416 1.85947
thorax 3.97714 -2.48572 4.90062
lowerneck -20.1191 -5.83722 -13.4581
upperneck 19.9291 -6.83987 11.7807
head 10.6228 -2.83216 5.45293
lclavicle 4.79506e-14 -4.37328e-15 0
lhumerus -33.3367 -18.7795 98.0432
lradius 29.5267 0 0
lwrist 2.31008 0 0
lhand -9.90816 -21.2882 0
lfingers 7.12502 0 0
lthumb 16.0696 8.02931 0
rclavicle 4.79506e-14 -4.37328e-15 0
rhumerus -48.3342 4.95739 -82.6127
rradius 30.9537 0 0
rwrist -18.3441 0 0
rhand -26.2758 -32.83 0
rfingers 7.12502 0 0
rthumb 0.279354 -62.8092 0
137
root 8.89999 15.8721 -17.8793 6.49629 8.83001 5.35419
lfemur 23.8387 2.35041 -23.2408
ltibia 1.90833e-14 0 0
lfoot -8.16357 -3.39215 0
ltoes -11.6335 0 0
rfemur -42.4901 4.17628 10.0603
rtibia 32.8388 0 0
rfoot -9.92583 -8.68626 0
rtoes -22.3905 0 0
lowerback -7.93557 -3.87362 -6.00877
upperback -1.12378 -4.70657 1.86029
thorax 3.9195 -2.44185 4.76285
lowerneck -20.132 -5.89133 -13.5226
upperneck 19.7514 -6.92163 11.9486
head 10.5826 -2.85437 5.50823
lclavicle 4.66854e-14 -5.301e-16 0
lhumerus -33.4914 -17.5905 97.7839
lradius 28.4333 0 0
lwrist 1.72134 0 0
lhand -8.68065 -20.385 0
lfingers 7.12502 0 0
lthumb 17.2516 8.83684 0
rclavicle 4.66854e-14 -5.301e-16 0
rhumerus -48.4795 4.89733 -82.6996
rradius 30.7902 0 0
rwrist -18.222 0 0
rhand -26.402 -32.0591 0
rfingers 7.12502 0 0
rthumb 0.157495 -62.0385 0
138
root 8.87362 15.8693 -17.7064 6.52216 8.8761 5.16286
lfemur 24.3155 2.59196 -22.6782
ltibia 2.22639e-14 0 0
lfoot -7.17527 -3.49757 0
ltoes -12.6211 0 0
rfemur -42.6027 3.57159 10.7917
rtibia 33.7788 0 0
rfoot -8.18272 -8.32445 0
rtoes -22.2399 0 0
lowerback -7.85867 -3.79399 -5.73554
upperback -1.10647 -4.62898 1.86112
thorax 3.86186 -2.39797 4.62508
lowerneck -20.145 -5.94545 -13.5871
upperneck 19.5736 -7.00338 12.1165
head 10.5423 -2.87658 5.56353
lclavicle 4.54202e-14 3.31307e-15 0
lhumerus -33.646 -16.4015 97.5247
lradius 27.3399 0 0
lwrist 1.13259 0 0
lhand -7.45313 -19.4817 0
lfingers 7.12502 0 0
lthumb 18.4335 9.64437 0
rclavicle 4.54202e-14 3.31307e-15 0
rhumerus -48.6249 4.83727 -82.7866
rradius 30.6266 0 0
rwrist -18.1 0 0
rhand -26.5281 -31.2882 0
rfingers 7.12502 0 0
rthumb 0.0356372 -61.2677 0
139
root 8.84725 15.8665 -17.5336 6.54803 8.92219 4.97153
lfemur 24.7923 2.8335 -22.1156
ltibia 2.54444e-14 0 0
lfoot -6.18696 -3.60299 0
ltoes -13.6086 0 0
rfemur -42.7152 2.9669 11.5231
rtibia 34.7188 0 0
rfoot -6.4396 -7.96264 0
rtoes -22.0893 0 0
lowerback -7.78176 -3.71435 -5.46231
upperback -1.08916 -4.55139 1.86194
thorax 3.80422 -2.3541 4.48731
lowerneck -20.1579 -5.99956 -13.6516
upperneck 19.3959 -7.08514 12.2844
head 10.502 -2.89879 5.61884
lclavicle 4.4155e-14 7.15625e-15 0
lhumerus -33.8007 -15.2125 97.2654
lradius 26.2465 0 0
lwrist 0.54385 0 0
lhand -6.22562 -18.5785 0
lfingers 7.12502 0 0
lthumb 19.6155 10.4519 0
rclavicle 4.4155e-14 7.15625e-15 0
rhumerus -48.7702 4.77721 -82.8735
rradius 30.4631 0 0
rwrist -17.978 0 0
rhand -26.6543 -30.5173 0
rfingers 7.12502 0 0
rthumb -0.0862209 -60.497 0
140
root 8.81419 15.8751 -17.3632 6.52994 8.82137 4.7904
lfemur 25.2231 3.21072 -21.5765
ltibia 1.80231e-14 0 0
lfoot -4.34648 -3.28229 0
ltoes -14.0579 0 0
rfemur -42.5634 2.84395 12.1118
rtibia 35.461 0 0
rfoot -6.37573 -7.32614 0
rtoes -21.1639 0 0
lowerback -7.63264 -3.64563 -5.32427
upperback -1.10088 -4.48007 1.91395
thorax 3.69418 -2.31451 4.48144
lowerneck -20.0131 -5.98429 -13.6985
upperneck 19.0856 -7.06372 12.3817
head 10.368 -2.88588 5.65759
lclavicle 3.62036e-14 8.74652e-15 0
lhumerus -33.9941 -13.2095 96.3897
lradius 25.1239 0 0
lwrist -1.19919 0 0
lhand -7.49495 -19.4834 0
lfingers 7.12502 0 0
lthumb 18.3932 9.64514 0
rclavicle 3.62036e-14 8.74652e-15 0
rhumerus -48.7075 4.70181 -82.7272
rradius 30.2449 0 0
rwrist -17.6662 0 0
rhand -27.2876 -29.2286 0
rfingers 7.12502 0 0
rthumb -0.697811 -59.2028 0
141
root 8.78112 15.8836 -17.1928 6.51186 8.72054 4.60927
lfemur 25.654 3.58793 -21.0374
ltibia 1.06018e-14 0 0
lfoot -2.50601 -2.96159 0
ltoes -14.5071 0 0
rfemur -42.4116 2.72099 12.7005
rtibia 36.2032 0 0
rfoot -6.31187 -6.68963 0
rtoes -20.2384 0 0
lowerback -7.48352 -3.57691 -5.18623
upperback -1.1126 -4.40874 1.96596
thorax 3.58414 -2.27491 4.47556
lowerneck -19.8683 -5.96901 -13.7455
upperneck 18.7753 -7.04231 12.479
head 10.234 -2.87297 5.69634
lclavicle 2.82522e-14 1.03368e-14 0
lhumerus -34.1876 -11.2065 95.514
lradius 24.0013 0 0
lwrist -2.94222 0 0
lhand -8.76428 -20.3883 0
lfingers 7.12502 0 0
lthumb 17.1709 8.83837 0
rclavicle 2.82522e-14 1.03368e-14 0
rhumerus -48.6448 4.62642 -82.5808
rradius 30.0267 0 0
rwrist -17.3545 0 0
rhand -27.9208 -27.9399 0
rfingers 7.12502 0 0
rthumb -1.3094 -57.9086 0
142
root 8.74806 15.8921 -17.0224 6.49377 8.61972 4.42814
lfemur 26.0848 3.96515 -20.4983
ltibia 3.18055e-15 0 0
lfoot -0.66553 -2.64089 0
ltoes -14.9563 0 0
rfemur -42.2599 2.59803 13.2892
rtibia 36.9454 0 0
rfoot -6.248 -6.05312 0
rtoes -19.313 0 0
lowerback -7.3344 -3.50819 -5.04819
upperback -1.12431 -4.33742 2.01797
thorax 3.4741 -2.23532 4.46969
lowerneck -19.7235 -5.95374 -13.7924
upperneck 18.465 -7.02089 12.5763
head 10.1001 -2.86006 5.73509
lclavicle 2.03009e-14 1.19271e-14 0
lhumerus -34.3811 -9.20348 94.6384
lradius 22.8788 0 0
lwrist -4.68526 0 0
lhand -10.0336 -21.2933 0
lfingers 7.12502 0 0
lthumb 15.9487 8.03161 0
rclavicle 2.03009e-14 1.19271e-14 0
rhumerus -48.5821 4.55102 -82.4344
rradius 29.8086 0 0
rwrist -17.0427 0 0
rhand -28.5541 -26.6512 0
rfingers 7.12502 0 0
rthumb -1.92099 -56.6144 0
143
root 8.71499 15.9007 -16.8521 6.47569 8.5189 4.24701
lfemur 26.5156 4.34237 -19.9592
ltibia -4.24073e-15 0 0
lfoot 1.17495 -2.32019 0
ltoes -15.4056 0 0
rfemur -42.1081 2.47508 13.8779
rtibia 37.6875 0 0
rfoot -6.18413 -5.41662 0
rtoes -18.3876 0 0
lowerback -7.18527 -3.43947 -4.91016
upperback -1.13603 -4.2661 2.06999
thorax 3.36407 -2.19573 4.46381
lowerneck -19.5787 -5.93847 -13.8394
upperneck 18.1546 -6.99947 12.6737
head 9.96609 -2.84714 5.77385
lclavicle 1.23495e-14 1.35173e-14 0
lhumerus -34.5745 -7.20047 93.7627
lradius 21.7562 0 0
lwrist -6.4283 0 0
lhand -11.3029 -22.1982 0
lfingers 7.12502 0 0
lthumb 14.7264 7.22485 0
rclavicle 1.23495e-14 1.35173e-14 0
rhumerus -48.5193 4.47562 -82.2881
rradius 29.5904 0 0
rwrist -16.7309 0 0
rhand -29.1874 -25.3626 0
rfingers 7.12502 0 0
rthumb -2.53258 -55.3202 0
